<svg xmlns="http://www.w3.org/2000/svg" viewBox="0 0 160 44" fill="none">
  <!-- Icon box -->
  <rect width="44" height="44" rx="12" fill="url(#grad)"/>
  <path d="M31.6 12.32A15.85 15.85 0 0 0 22.05 10C13.73 10 7.2 16.53 7.2 24.85a15.82 15.82 0 0 0 2.06 7.94L7 38l8.31-2.13a15.87 15.87 0 0 0 6.74 1.95h.01c8.32 0 14.84-6.53 14.84-14.85a15.82 15.82 0 0 0-5.3-12.65zM22.05 35.46a13.52 13.52 0 0 1-6.32-1.91l-.44-.24-4.46 1.15 1.16-4.4-.26-.45A13.49 13.49 0 0 1 9.7 23.15c0-6.59 5.42-11.51 11.52-11.51a12.48 12.48 0 0 1 8.61 3.61 12.47 12.47 0 0 1 3.71 8.61c0 6.6-5.43 11.6-11.52 11.6zm6.57-8.88c-.3-.1-2.16-.57-2.34-.63-.28-.07-.51-.1-.74.1-.23.19-.9.63-1.12.77-.21.13-.42.15-.72.05-.4-.1-1.74-.61-3.1-1.99a11.02 11.02 0 0 1-2.1-2.37c-.22-.4-.01-.6.19-.8.19-.19.4-.43.6-.65.2-.22.23-.4.4-.63.16-.23.03-.45-.02-.55-.05-.2-.84-2.05-1.2-2.84-.26-.78-.62-.63-.84-.63-.11-.01-.44-.01-.67-.01-.33 0-.74.05-1.02.25-.38.2-1.38 1.16-1.38 2.6s1.3 3.36 1.49 3.49c.1.12 2.67 4.09 6.33 5.93.96.2 1.63.42 2.11.61.77.25 1.6.23 2.23.08.68-.06 2.16-.77 2.53-1.93.26-.85.26-1.64.11-1.93-.15-.19-.38-.24-.68-.44z" fill="white"/>
  <!-- Text: WaLink -->
  <text x="54" y="28" font-family="-apple-system, BlinkMacSystemFont, 'Segoe UI', sans-serif" font-size="22" font-weight="800" letter-spacing="-0.5" fill="#f0f6fc">Wa<tspan fill="#25D366">Link</tspan></text>
  <defs>
    <linearGradient id="grad" x1="0" y1="0" x2="44" y2="44" gradientUnits="userSpaceOnUse">
      <stop offset="0%" stop-color="#128C7E"/>
      <stop offset="100%" stop-color="#075E54"/>
    </linearGradient>
  </defs>
</svg>
